<svg xmlns="http://www.w3.org/2000/svg" xmlns:xlink="http://www.w3.org/1999/xlink" width="1000" zoomAndPan="magnify" viewBox="0 0 750 749.999995" height="1000" preserveAspectRatio="xMidYMid meet" version="1.0"><defs><g/><clipPath id="6e5a52aa62"><path d="M 147.714844 163.339844 L 602.214844 163.339844 L 602.214844 586.339844 L 147.714844 586.339844 Z M 147.714844 163.339844 " clip-rule="nonzero"/></clipPath></defs><rect x="-75" width="900" fill="#ffffff" y="-74.999999" height="899.999994" fill-opacity="1"/><rect x="-75" width="900" fill="#ffffff" y="-74.999999" height="899.999994" fill-opacity="1"/><path fill="#ffffff" d="M 428.609375 173.09375 L 415.25 164.160156 C 389.507812 174.816406 360.65625 174.816406 334.914062 164.160156 C 334.914062 164.160156 321.550781 173.09375 321.550781 173.09375 L 148.914062 247.527344 L 180.71875 327.945312 L 240.726562 315.566406 L 236.136719 586 L 513.945312 586 L 509.355469 315.566406 L 569.363281 327.945312 L 601.167969 247.527344 C 601.085938 247.527344 428.609375 173.09375 428.609375 173.09375 Z M 428.609375 173.09375 " fill-opacity="1" fill-rule="nonzero"/><path fill="#ffffff" d="M 180.71875 327.945312 L 148.914062 247.527344 L 251.300781 203.015625 L 259.988281 235.886719 C 266.21875 259.578125 261.875 284.828125 248.019531 304.992188 L 240.726562 315.648438 Z M 569.28125 327.945312 L 601.085938 247.527344 L 498.699219 203.015625 L 490.011719 235.886719 C 483.78125 259.578125 488.125 284.828125 501.976562 304.992188 L 509.273438 315.648438 Z M 569.28125 327.945312 " fill-opacity="1" fill-rule="nonzero"/><path fill="#004aad" d="M 157.929688 243.59375 L 190.558594 325.894531 L 180.71875 327.945312 L 148.914062 247.527344 Z M 601.085938 247.527344 L 591.988281 243.59375 L 559.441406 325.894531 L 569.28125 327.945312 Z M 601.085938 247.527344 " fill-opacity="1" fill-rule="nonzero"/><path fill="#ffffff" d="M 334.996094 181.867188 C 361.144531 189.738281 389.097656 189.738281 415.25 181.867188 L 415.25 177.933594 C 389.097656 185.800781 361.144531 185.800781 334.996094 177.933594 Z M 334.996094 181.867188 " fill-opacity="1" fill-rule="nonzero"/><path fill="#004aad" d="M 422.871094 169.324219 L 415.25 164.160156 C 402.378906 169.488281 388.773438 172.113281 375.082031 172.113281 C 361.390625 172.113281 347.785156 169.488281 334.914062 164.160156 L 324.175781 171.375 L 321.550781 173.175781 C 324.667969 216.871094 367.539062 237.199219 369.507812 238.101562 L 375.082031 240.722656 L 380.65625 238.101562 C 382.625 237.199219 425.496094 216.871094 428.609375 173.175781 Z M 375.082031 226.132812 C 375.082031 226.132812 341.882812 210.558594 335.816406 178.179688 C 348.605469 181.949219 361.882812 183.835938 375.082031 183.835938 C 388.28125 183.835938 401.558594 181.949219 414.347656 178.179688 C 408.28125 210.558594 375.082031 226.132812 375.082031 226.132812 Z M 375.082031 226.132812 " fill-opacity="1" fill-rule="nonzero"/><g clip-path="url(#6e5a52aa62)"><path fill="#004aad" d="M 428.9375 172.441406 L 415.332031 163.339844 L 414.921875 163.503906 C 389.179688 174.160156 360.898438 174.160156 335.160156 163.503906 L 334.832031 163.339844 L 321.226562 172.441406 L 148.585938 246.871094 L 147.929688 247.117188 L 179.984375 328.191406 L 180.226562 328.765625 L 239.90625 316.46875 L 235.316406 585.917969 L 235.316406 586.65625 L 514.683594 586.65625 L 510.09375 316.46875 L 569.117188 328.601562 L 569.769531 328.765625 L 602.070312 247.117188 Z M 321.878906 173.832031 L 334.75 165.226562 C 333.847656 186.375 344.667969 201.785156 353.933594 210.96875 C 364.179688 221.132812 374.917969 226.214844 375 226.214844 L 375.164062 226.214844 C 375.246094 226.132812 385.984375 221.132812 396.230469 210.96875 C 405.578125 201.785156 416.316406 186.375 415.414062 165.226562 L 428.203125 173.832031 L 428.367188 173.914062 C 426.890625 191.785156 418.773438 207.851562 404.101562 221.625 C 392.953125 232.035156 381.804688 237.445312 380.574219 238.019531 L 375.082031 240.5625 L 369.589844 238.019531 C 368.359375 237.445312 357.210938 232.035156 346.0625 221.625 C 331.390625 207.769531 323.191406 191.703125 321.878906 173.832031 Z M 413.28125 182.277344 C 388.28125 189.410156 361.882812 189.410156 336.964844 182.277344 C 336.636719 181.046875 336.308594 179.734375 336.0625 178.34375 C 348.851562 182.03125 361.964844 183.917969 375.164062 183.917969 C 388.363281 183.917969 401.476562 182.03125 414.265625 178.34375 C 413.855469 179.652344 413.609375 180.964844 413.28125 182.277344 Z M 413.199219 182.605469 C 409.757812 194.902344 402.542969 204.328125 396.066406 210.804688 C 386.230469 220.476562 376.066406 225.558594 375.164062 225.96875 C 374.261719 225.558594 364.015625 220.476562 354.261719 210.804688 C 347.785156 204.410156 340.570312 194.984375 337.128906 182.605469 C 349.585938 186.128906 362.375 187.933594 375.246094 187.933594 C 387.871094 187.851562 400.738281 186.128906 413.199219 182.605469 Z M 415.085938 165.0625 C 415.332031 169.652344 414.921875 173.996094 414.183594 178.015625 C 388.609375 185.472656 361.554688 185.472656 335.898438 178.015625 C 335.160156 173.996094 334.75 169.652344 334.996094 165.0625 C 360.898438 175.636719 389.261719 175.636719 415.085938 165.0625 Z M 181.210938 327.125 L 149.898438 247.9375 L 251.464844 204.164062 L 259.824219 235.886719 C 266.054688 259.578125 261.710938 284.664062 247.859375 304.910156 L 241.136719 314.746094 Z M 513.125 585.261719 L 236.871094 585.261719 L 241.464844 315.648438 L 241.464844 314.746094 L 248.101562 305.074219 C 262.039062 284.828125 266.382812 259.578125 260.070312 235.804688 L 251.628906 204 L 321.46875 173.996094 C 322.945312 191.867188 331.144531 207.933594 345.816406 221.789062 C 356.964844 232.28125 368.113281 237.609375 369.425781 238.183594 L 375 240.804688 L 375.082031 240.804688 L 380.738281 238.183594 C 381.96875 237.609375 393.117188 232.199219 404.347656 221.789062 C 419.019531 208.015625 427.21875 191.949219 428.691406 173.996094 L 498.371094 204.082031 L 489.929688 235.886719 C 483.617188 259.660156 488.042969 284.828125 501.894531 305.15625 L 508.535156 314.828125 Z M 568.789062 327.125 L 508.863281 314.828125 L 502.140625 304.992188 C 488.289062 284.828125 483.945312 259.660156 490.175781 235.96875 L 498.617188 204.164062 L 600.183594 247.9375 Z M 568.789062 327.125 " fill-opacity="1" fill-rule="nonzero"/></g><g fill="#004aad" fill-opacity="1"><g transform="translate(311.291911, 496.690964)"><g><path d="M 106.9375 -188.078125 L 106.9375 -152.609375 L 50.515625 -152.609375 L 50.515625 -112.03125 L 88.125 -112.03125 L 116.609375 -84.625 L 116.609375 -27.40625 L 88.125 0 L 11.28125 0 L 11.28125 -188.078125 Z M 50.515625 -76.578125 L 50.515625 -35.46875 L 77.375 -35.46875 L 77.375 -76.578125 Z M 50.515625 -76.578125 "/></g></g></g></svg>